<svg width="288" height="28" viewBox="0 0 288 28" fill="none" xmlns="http://www.w3.org/2000/svg">
<mask id="mask0" style="mask-type:alpha" maskUnits="userSpaceOnUse" x="0" y="0" width="288" height="28">
<rect x="0.5" y="0.5" width="287" height="27" fill="#C4C4C4" stroke="black"/>
</mask>
<g mask="url(#mask0)">
<rect x="182" width="106" height="28" fill="url(#paint0_linear)"/>
<path d="M243.856 9.6C243.944 9.6 244.02 9.632 244.084 9.696C244.148 9.76 244.18 9.836 244.18 9.924V17.676C244.18 17.764 244.148 17.84 244.084 17.904C244.02 17.968 243.944 18 243.856 18H241.924C241.732 18 241.572 17.916 241.444 17.748L238.828 14.412V17.676C238.828 17.764 238.796 17.84 238.732 17.904C238.668 17.968 238.592 18 238.504 18H236.272C236.184 18 236.108 17.968 236.044 17.904C235.98 17.84 235.948 17.764 235.948 17.676V9.924C235.948 9.836 235.98 9.76 236.044 9.696C236.108 9.632 236.184 9.6 236.272 9.6H238.216C238.408 9.6 238.564 9.68 238.684 9.84L241.3 13.452V9.924C241.3 9.836 241.332 9.76 241.396 9.696C241.46 9.632 241.536 9.6 241.624 9.6H243.856ZM250.295 18.12C248.951 18.12 247.883 17.828 247.091 17.244C246.307 16.66 245.915 15.748 245.915 14.508V9.924C245.915 9.836 245.947 9.76 246.011 9.696C246.075 9.632 246.151 9.6 246.239 9.6H248.747C248.835 9.6 248.911 9.632 248.975 9.696C249.039 9.76 249.071 9.836 249.071 9.924V14.7C249.071 15.028 249.179 15.28 249.395 15.456C249.619 15.632 249.919 15.72 250.295 15.72C250.671 15.72 250.967 15.632 251.183 15.456C251.407 15.28 251.519 15.028 251.519 14.7V9.924C251.519 9.836 251.551 9.76 251.615 9.696C251.679 9.632 251.755 9.6 251.843 9.6H254.351C254.439 9.6 254.515 9.632 254.579 9.696C254.643 9.76 254.675 9.836 254.675 9.924V14.508C254.675 15.748 254.279 16.66 253.487 17.244C252.703 17.828 251.639 18.12 250.295 18.12ZM264.379 15.66C264.467 15.66 264.543 15.692 264.607 15.756C264.671 15.82 264.703 15.896 264.703 15.984V17.676C264.703 17.764 264.671 17.84 264.607 17.904C264.543 17.968 264.467 18 264.379 18H256.795C256.707 18 256.631 17.968 256.567 17.904C256.503 17.84 256.471 17.764 256.471 17.676V9.924C256.471 9.836 256.503 9.76 256.567 9.696C256.631 9.632 256.707 9.6 256.795 9.6H264.259C264.347 9.6 264.423 9.632 264.487 9.696C264.551 9.76 264.583 9.836 264.583 9.924V11.616C264.583 11.704 264.551 11.78 264.487 11.844C264.423 11.908 264.347 11.94 264.259 11.94H259.591V12.696H263.599C263.687 12.696 263.763 12.728 263.827 12.792C263.891 12.856 263.923 12.932 263.923 13.02V14.58C263.923 14.668 263.891 14.744 263.827 14.808C263.763 14.872 263.687 14.904 263.599 14.904H259.591V15.66H264.379ZM275.138 9.6C275.21 9.6 275.27 9.628 275.318 9.684C275.374 9.732 275.402 9.792 275.402 9.864L275.39 9.948L272.63 17.604C272.59 17.716 272.526 17.812 272.438 17.892C272.35 17.964 272.234 18 272.09 18H269.294C269.15 18 269.034 17.964 268.946 17.892C268.858 17.812 268.798 17.728 268.766 17.64L265.982 9.948L265.97 9.864C265.97 9.792 265.994 9.732 266.042 9.684C266.098 9.628 266.162 9.6 266.234 9.6H268.766C268.91 9.6 269.026 9.644 269.114 9.732C269.21 9.812 269.274 9.9 269.306 9.996L270.686 14.592L272.066 9.996C272.098 9.892 272.158 9.8 272.246 9.72C272.334 9.64 272.454 9.6 272.606 9.6H275.138ZM285.345 14.532C285.345 15.756 284.937 16.66 284.121 17.244C283.313 17.828 282.233 18.12 280.881 18.12C279.529 18.12 278.445 17.828 277.629 17.244C276.821 16.66 276.417 15.748 276.417 14.508V13.092C276.417 12.276 276.609 11.6 276.993 11.064C277.385 10.52 277.917 10.12 278.589 9.864C279.261 9.608 280.025 9.48 280.881 9.48C281.737 9.48 282.497 9.608 283.161 9.864C283.833 10.12 284.365 10.516 284.757 11.052C285.149 11.588 285.345 12.26 285.345 13.068V14.532ZM279.657 14.76C279.657 15.088 279.765 15.34 279.981 15.516C280.205 15.692 280.505 15.78 280.881 15.78C281.257 15.78 281.553 15.692 281.769 15.516C281.993 15.332 282.105 15.076 282.105 14.748V12.852C282.105 12.524 281.993 12.272 281.769 12.096C281.553 11.912 281.257 11.82 280.881 11.82C280.505 11.82 280.205 11.908 279.981 12.084C279.765 12.26 279.657 12.512 279.657 12.84V14.76Z" fill="white"/>
</g>
<defs>
<linearGradient id="paint0_linear" x1="288" y1="14" x2="182" y2="14" gradientUnits="userSpaceOnUse">
<stop stop-color="#0075FF"/>
<stop offset="0.0001" stop-color="#0075FF" stop-opacity="0.927083"/>
<stop offset="0.578125" stop-color="#0075FF" stop-opacity="0.894072"/>
<stop offset="0.9999" stop-color="#0075FF" stop-opacity="0.0193162"/>
<stop offset="1" stop-color="#0075FF" stop-opacity="0"/>
</linearGradient>
</defs>
</svg>
